<?xml version="1.0" encoding="UTF-8" standalone="no"?>
<svg width="200px" height="46px" viewBox="0 0 200 46" version="1.1" xmlns="http://www.w3.org/2000/svg" xmlns:xlink="http://www.w3.org/1999/xlink" xmlns:sketch="http://www.bohemiancoding.com/sketch/ns">
    <!-- Generator: Sketch 3.5.1 (25234) - http://www.bohemiancoding.com/sketch -->
    <title>FKC_LOGO_012216_Final</title>
    <desc>Created with Sketch.</desc>
    <defs>
        <path id="path-1" d="M0.06,0.907 L199.999,0.907 L199.999,46 L0.06,46"></path>
    </defs>
    <g id="Page-1" stroke="none" stroke-width="1" fill="none" fill-rule="evenodd" sketch:type="MSPage">
        <g id="FKC_LOGO_012216_Final" sketch:type="MSLayerGroup">
            <g id="Group-3">
                <mask id="mask-2" sketch:name="Clip 2" fill="white">
                    <use xlink:href="#path-1"></use>
                </mask>
                <g id="Clip-2"></g>
                <path d="M28.885,5.873 L0,0.907 L6.037,10.62 L28.885,15.608 L51.71,10.62 L57.788,0.907 L28.885,5.873" id="Fill-1" fill="#195488" sketch:type="MSShapeGroup" mask="url(#mask-2)"></path>
            </g>
            <path d="M28.885,46 L35.101,36.048 L28.885,37.736 L22.686,36.048 L28.885,46" id="Fill-4" fill="#195488" sketch:type="MSShapeGroup"></path>
            <path d="M11.344,19.459 L28.885,23.155 L46.444,19.459 L40.881,28.339 L28.885,31.417 L16.886,28.339 L11.344,19.459" id="Fill-5" fill="#195488" sketch:type="MSShapeGroup"></path>
            <path d="M169.548,23.721 C173.042,23.721 175.211,22.251 175.211,19.25 C175.211,16.506 173.36,15.531 170.28,14.819 C168.354,14.362 167.839,14.103 167.839,13.469 C167.839,12.932 168.181,12.495 169.441,12.495 C170.815,12.495 171.989,12.969 173.104,13.788 L174.99,11.179 C173.585,10.029 171.914,9.373 169.602,9.373 C166.466,9.373 164.299,11.064 164.299,13.665 C164.299,16.429 165.966,17.304 169.067,18.017 C171.178,18.516 171.673,18.85 171.673,19.511 C171.673,20.287 171.113,20.601 169.666,20.601 C168.354,20.601 166.722,19.983 165.733,19.192 L163.841,21.756 C165.156,22.908 167.283,23.721 169.548,23.721" id="Fill-6" fill="#195488" sketch:type="MSShapeGroup"></path>
            <path d="M72.006,12.69 L72.006,14.84 L76.915,14.84 L76.915,17.918 L72.006,17.918 L72.006,23.502 L68.512,23.502 L68.512,9.594 L78.876,9.594 L78.876,12.69 L72.006,12.69" id="Fill-7" fill="#195488" sketch:type="MSShapeGroup"></path>
            <path d="M88.004,23.502 L85.658,18.711 L83.691,18.711 L83.691,23.502 L80.234,23.502 L80.234,9.594 L86.554,9.594 C89.593,9.594 91.763,10.905 91.763,14.085 C91.763,16.17 90.808,17.465 89.196,18.158 L91.938,23.502 L88.004,23.502 L88.004,23.502 Z M86.452,12.59 L83.691,12.59 L83.691,15.814 L86.416,15.814 C87.687,15.814 88.243,15.236 88.243,14.164 C88.243,13.17 87.687,12.59 86.452,12.59 L86.452,12.59 Z" id="Fill-8" fill="#195488" sketch:type="MSShapeGroup"></path>
            <path d="M93.754,23.502 L104.269,23.502 L104.269,20.441 L97.234,20.441 L97.234,17.721 L101.617,17.721 L101.617,14.7 L97.234,14.7 L97.234,12.651 L103.785,12.651 L103.785,9.594 L93.754,9.594 L93.754,23.502" id="Fill-9" fill="#195488" sketch:type="MSShapeGroup"></path>
            <path d="M110.673,23.721 C114.165,23.721 116.333,22.251 116.333,19.25 C116.333,16.506 114.485,15.531 111.408,14.819 C109.482,14.362 108.96,14.103 108.96,13.469 C108.96,12.932 109.299,12.495 110.57,12.495 C111.942,12.495 113.118,12.969 114.227,13.788 L116.117,11.179 C114.706,10.029 113.034,9.373 110.732,9.373 C107.592,9.373 105.428,11.064 105.428,13.665 C105.428,16.429 107.093,17.304 110.193,18.017 C112.302,18.516 112.797,18.85 112.797,19.511 C112.797,20.287 112.236,20.601 110.791,20.601 C109.482,20.601 107.849,19.983 106.854,19.192 L104.968,21.756 C106.279,22.908 108.406,23.721 110.673,23.721" id="Fill-10" fill="#195488" sketch:type="MSShapeGroup"></path>
            <path d="M118.211,23.502 L128.723,23.502 L128.723,20.441 L121.688,20.441 L121.688,17.721 L126.073,17.721 L126.073,14.7 L121.688,14.7 L121.688,12.651 L128.238,12.651 L128.238,9.594 L118.211,9.594 L118.211,23.502" id="Fill-11" fill="#195488" sketch:type="MSShapeGroup"></path>
            <path d="M139.383,23.502 L142.307,23.502 L142.307,9.594 L138.925,9.594 L138.925,17.183 L133.563,9.594 L130.402,9.594 L130.402,23.502 L133.778,23.502 L133.778,15.531 L139.383,23.502" id="Fill-12" fill="#195488" sketch:type="MSShapeGroup"></path>
            <path d="M144.827,9.594 L148.38,9.594 L148.38,23.503 L144.827,23.503 L144.827,9.594 Z" id="Fill-13" fill="#195488" sketch:type="MSShapeGroup"></path>
            <path d="M156.621,23.721 C160.124,23.721 162.584,21.775 162.584,17.502 L162.584,9.594 L159.048,9.594 L159.048,17.502 C159.048,19.388 158.247,20.543 156.663,20.543 C155.05,20.543 154.259,19.371 154.259,17.502 L154.259,9.594 L150.696,9.594 L150.696,17.502 C150.696,21.792 153.164,23.721 156.621,23.721" id="Fill-14" fill="#195488" sketch:type="MSShapeGroup"></path>
            <path d="M157.532,35.292 L160.723,33.983 C159.79,31.646 158.36,30.234 155.222,30.234 C151.511,30.234 148.938,33.009 148.938,37.392 C148.938,41.6 151.216,44.558 155.17,44.558 C158.202,44.558 159.79,42.991 160.737,41.124 L157.784,39.498 C157.028,40.787 156.456,41.405 155.222,41.405 C153.422,41.405 152.566,39.64 152.566,37.392 C152.566,35.078 153.422,33.386 155.188,33.386 C156.456,33.386 157.028,34.125 157.532,35.292" id="Fill-15" fill="#195488" sketch:type="MSShapeGroup"></path>
            <path d="M170.745,44.337 L169.94,41.681 L165.351,41.681 L164.537,44.337 L160.81,44.337 L165.932,30.455 L169.42,30.455 L174.542,44.337 L170.745,44.337 L170.745,44.337 Z M166.261,38.764 L169.024,38.764 L167.65,34.285 L166.261,38.764 L166.261,38.764 Z" id="Fill-16" fill="#195488" sketch:type="MSShapeGroup"></path>
            <path d="M183.657,44.337 L181.318,39.557 L179.354,39.557 L179.354,44.337 L175.9,44.337 L175.9,30.455 L182.211,30.455 C185.252,30.455 187.408,31.763 187.408,34.936 C187.408,37.024 186.452,38.308 184.846,39.003 L187.591,44.337 L183.657,44.337 L183.657,44.337 Z M182.109,33.446 L179.354,33.446 L179.354,36.662 L182.073,36.662 C183.339,36.662 183.898,36.087 183.898,35.014 C183.898,34.027 183.339,33.446 182.109,33.446 L182.109,33.446 Z" id="Fill-17" fill="#195488" sketch:type="MSShapeGroup"></path>
            <path d="M189.491,44.337 L199.999,44.337 L199.999,41.278 L192.971,41.278 L192.971,38.554 L197.346,38.554 L197.346,35.536 L192.971,35.536 L192.971,33.49 L199.519,33.49 L199.519,30.426 L189.491,30.426 L189.491,44.337" id="Fill-18" fill="#195488" sketch:type="MSShapeGroup"></path>
            <path d="M76.751,44.211 L73.855,38.305 L72.43,40.029 L72.43,44.211 L68.505,44.211 L68.505,30.337 L72.43,30.337 L72.43,31.962 C72.43,33.132 72.409,34.381 72.37,35.391 C72.944,34.479 74.153,32.874 75.046,31.744 L76.155,30.337 L80.833,30.337 L76.651,35.233 L81.309,44.211 L76.751,44.211" id="Fill-19" fill="#195488" sketch:type="MSShapeGroup"></path>
            <path d="M93.834,33.627 L92.882,33.627 L92.882,40.921 L93.715,40.921 C96.113,40.921 97.045,40.009 97.045,37.255 C97.045,34.697 96.233,33.627 93.834,33.627 L93.834,33.627 Z M93.497,44.211 L88.999,44.211 L88.999,30.337 L93.854,30.337 C98.215,30.337 100.988,31.982 100.988,37.195 C100.988,42.408 98.412,44.211 93.497,44.211 L93.497,44.211 Z" id="Fill-20" fill="#195488" sketch:type="MSShapeGroup"></path>
            <path d="M137.597,39.039 L137.597,44.211 L133.712,44.211 L133.712,39.098 L128.579,30.337 L133.019,30.337 L134.088,32.438 C134.823,33.885 135.416,35.213 135.674,36.025 C135.932,35.213 136.527,33.885 137.26,32.438 L138.33,30.337 L142.729,30.337 L137.597,39.039" id="Fill-21" fill="#195488" sketch:type="MSShapeGroup"></path>
            <path d="M82.867,30.455 L86.42,30.455 L86.42,44.335 L82.867,44.335 L82.867,30.455 Z" id="Fill-22" fill="#195488" sketch:type="MSShapeGroup"></path>
            <path d="M117.234,44.246 L127.747,44.246 L127.747,41.184 L120.712,41.184 L120.712,38.464 L125.098,38.464 L125.098,35.443 L120.712,35.443 L120.712,33.394 L127.261,33.394 L127.261,30.337 L117.234,30.337 L117.234,44.246" id="Fill-23" fill="#195488" sketch:type="MSShapeGroup"></path>
            <path d="M111.854,44.246 L114.778,44.246 L114.778,30.337 L111.396,30.337 L111.396,37.926 L106.035,30.337 L102.875,30.337 L102.875,44.246 L106.25,44.246 L106.25,36.275 L111.854,44.246" id="Fill-24" fill="#195488" sketch:type="MSShapeGroup"></path>
        </g>
    </g>
</svg>